<?xml version="1.0" encoding="UTF-8" standalone="no"?>
<svg xmlns:svg="http://www.w3.org/2000/svg"
     xmlns="http://www.w3.org/2000/svg" version="1.1"
     width="360" height="185">
    <!-- Created with the Wikimedia parliament diagram creator (http://parliamentdiagram.toolforge.org/parliamentinputform.html) -->
    <g>
        <text x="180" y="175" 
              style="font-size:36px;font-weight:bold;text-align:center;text-anchor:middle;font-family:sans-serif">20</text>
        <g style="fill:#FF0000; stroke-width:0.00; stroke:#000000" 
           id="0_Quartz"> 
            <title>Quartz</title>            <circle cx="22.23" cy="166.70" r="13.33"/> 
            <circle cx="55.71" cy="166.72" r="13.33"/> 
            <circle cx="33.05" cy="121.06" r="13.33"/> 
            <circle cx="68.70" cy="123.11" r="13.33"/> 
            <circle cx="56.76" cy="80.59" r="13.33"/> 
            <circle cx="96.44" cy="87.03" r="13.33"/> 
            <circle cx="91.30" cy="48.85" r="13.33"/> 
            <circle cx="135.25" cy="63.28" r="13.33"/> 
        </g>
        <g style="fill:#E6C805; stroke-width:0.00; stroke:#000000" 
           id="1_Jekyll"> 
            <title>Jekyll</title>            <circle cx="133.61" cy="28.61" r="13.33"/> 
            <circle cx="180.00" cy="21.67" r="13.33"/> 
            <circle cx="180.00" cy="55.00" r="13.33"/> 
            <circle cx="226.39" cy="28.61" r="13.33"/> 
            <circle cx="224.75" cy="63.28" r="13.33"/> 
            <circle cx="268.70" cy="48.85" r="13.33"/> 
            <circle cx="263.56" cy="87.03" r="13.33"/> 
        </g>
        <g style="fill:#191919; stroke-width:0.00; stroke:#000000" 
           id="2_Notionites"> 
            <title>Notionites</title>            <circle cx="303.24" cy="80.59" r="13.33"/> 
            <circle cx="291.30" cy="123.11" r="13.33"/> 
            <circle cx="326.95" cy="121.06" r="13.33"/> 
        </g>
        <g style="fill:#FBBD71; stroke-width:0.00; stroke:#000000" 
           id="3_Wixers"> 
            <title>Wixers</title>            <circle cx="304.29" cy="166.72" r="13.33"/> 
        </g>
        <g style="fill:#714AF8; stroke-width:0.00; stroke:#000000" 
           id="4_Zolists"> 
            <title>Zolists</title>            <circle cx="337.77" cy="166.70" r="13.33"/> 
        </g>
    </g>
</svg>
